<?xml version="1.0" encoding="UTF-8"?>
<svg xmlns="http://www.w3.org/2000/svg" viewBox="230 270 804 420" width="804" height="420">
<path d="M488.5 309.04C491.8 306.91 494.92 304.61 498.58 303.09C512.3 297.37 529 299.24 543.5 299.21C554.83 299.19 566.17 299.17 577.5 299.2C586.09 299.23 594.8 298.92 603.31 300.36C609.58 301.41 614.68 304.45 620.5 306.59C636.13 293.57 662.55 291.1 679.8 302.67C684.7 305.95 687.91 310.15 691.5 314.7C709.96 301.74 728.62 301.17 750.5 301.09C765.97 301.04 782.1 299.97 797.45 302.23C805.05 303.35 811.37 306.98 818.5 309.22C834.18 293.22 864.44 290.49 882.83 303.63C891.93 310.13 896.78 318.98 899.5 329.59C901.48 327.26 902.44 324.24 904.14 321.67C908.03 315.78 913.49 310.62 919.66 307.16C948.95 290.72 996.06 301.35 1003.73 337.67C1007.39 354.96 1002.3 372.07 998.44 388.81C995.43 401.87 991.9 414.8 988.33 427.71C985.19 439.13 982.83 448.61 978.01 459.5C990.55 482.36 986.55 512.49 962.37 525.86C957.29 528.67 951.96 530.63 946.22 531.58C942.47 532.21 938.25 531.71 934.99 533.5C938.32 536.33 941.88 538.36 944.42 542.11C951.42 552.45 951.35 569.01 945.26 579.73C943.84 582.22 942 584.47 939.72 586.21C938.56 587.1 936.41 587.84 935.61 589.06C934.5 590.76 934.58 593.51 933.98 595.46C933.22 597.95 932.06 600.24 930.78 602.5C932.78 609.18 934.95 615.37 934.7 622.5C933.15 666.11 879.14 666.02 847.5 663.88C839.6 663.35 831.6 661.95 824.07 659.46C816.19 656.85 810.66 651.98 804.5 646.76C790.93 660.23 772.94 663.22 754.5 664.35C734.68 665.57 708.31 665.23 690.81 654.66C686.8 652.23 683.96 648.6 680.5 645.64C669.28 663.57 652.75 663.8 633.5 664.3C620.17 664.65 606.83 664.72 593.5 664.3C584.53 664.01 575.31 663.86 566.8 660.63C561.02 658.43 557.37 654.27 552.5 650.94C538.36 664.81 516.05 663.61 501.5 651.34C488.07 653.44 468.99 653.73 455.5 651.92C452.46 651.51 449.53 650.57 446.5 650.2C434.36 667.9 409.33 664.51 390.5 664.55C373.22 664.58 342.11 667.24 328.06 656.46C317.66 648.49 314.52 635.09 315.83 622.5C316.18 619.11 318.88 613.69 318.55 610.82C318.29 608.61 317.33 604.01 316.28 602.18C315.64 601.06 314.1 600.22 313.22 599.27C310.66 596.51 308.97 593.11 307.94 589.5C306.13 583.19 306.24 575.97 308.29 569.72C309.1 567.27 311.55 564.91 311.92 562.45C312.34 559.63 311.2 556.46 311.38 553.55C311.99 543.52 316.31 535.77 323.99 529.5C320.21 527.09 310.64 527.82 305.53 526.84C290.72 524.01 275.95 517.01 267.59 503.89C253.77 482.18 257.65 449.27 257.62 424.5C257.61 409.17 257.56 393.83 257.64 378.5C257.73 360.85 258.15 343.45 267.26 327.75C284.23 298.53 319.07 299.17 348.5 299.23C365.47 299.25 385.41 297.42 401.89 301.55C407.67 302.99 412.22 306.47 417.5 308.85C432.31 294.26 458.49 291.17 477.03 300.49C481.38 302.67 484.79 305.98 488.5 309.04ZM422.5 440.18C425.2 445.05 423.52 452.98 423.55 458.5C423.64 477.16 418.27 508.71 442.48 514.2C446.03 515 449.87 515.24 453.5 515.05C459.27 514.74 465.36 513.14 469.93 509.44C481.47 500.13 479.66 480.64 479.79 467.5C480.13 431.84 479.75 396.16 479.86 360.5C479.9 346.45 482.84 327.2 469.48 317.98C464.94 314.85 458.88 314.13 453.5 314.14C449.43 314.14 445.14 314.59 441.19 315.59C418.95 321.22 423.56 355.42 423.5 372.69C423.48 377.23 424.19 382.17 422.88 386.5C417.88 389.04 412.12 387.91 407.78 392.27C399.43 400.65 399.6 427.16 408 435.49C412.09 439.54 417.6 438.37 422.5 440.18ZM647.87 314.54C634.42 316.28 628.27 323.37 626.32 336.63C625.03 345.38 625.63 354.67 625.61 363.5C625.58 377.83 625.47 392.17 625.58 406.5C625.68 418.51 623.65 432.42 627.54 443.97C630.98 454.22 640.31 458.25 650.5 458.44C653.67 458.49 657.06 458.31 660.14 457.55C676.08 453.59 677.21 437.23 677.6 423.5C678.17 403.5 678.25 383.51 678.21 363.5C678.2 354.26 679.01 344.69 677.82 335.51C676.19 322.96 668.75 315.21 656 314.36C653.29 314.42 650.58 314.48 647.87 314.54ZM881.5 381.24C880.12 375.99 881.06 369.97 881.24 364.5C881.59 353.58 882.67 341.3 879.71 330.68C873.77 309.42 837.87 307.96 828.65 327.18C822.44 340.11 824.72 360.37 824.69 374.5C824.64 405.12 823.59 435.9 824.4 466.5C824.74 479.21 821.84 500.46 833.04 509.48C837.7 513.23 843.61 514.94 849.5 515.25C853.05 515.44 856.73 515.29 860.22 514.57C875.57 511.4 879.41 499.46 880.27 485.5C881.26 469.52 880.12 453.45 880.93 437.5C886.3 436.19 892.23 436.07 896.44 431.95C905.46 423.13 905.77 394.73 896.46 386.03C892.1 381.96 886.96 382.23 881.5 381.24ZM536.14 317.61C535.09 317.73 534.05 317.85 533 317.96C527.67 318.05 522.33 318.13 517 318.21C512.52 318.25 508.01 319.25 504 321.3C500.98 322.84 498.43 324.74 496.93 327.8C489.27 336.91 490.31 363.51 502.02 369.47C510.31 373.69 520.76 370.99 529.6 372.5C529.92 384.58 511.49 391.82 502.87 397.4C491.15 404.98 489.99 423.09 495.74 434.73C505.66 454.83 534.08 442.06 546.96 432.47C550.33 429.96 553.07 426.72 556.5 424.32C570.18 436.42 592.13 454.61 610.38 438.9C612.64 436.96 614.43 433.92 615.69 431.24C619.98 422.11 620.36 408.25 612.97 400.51C610.15 397.56 606.35 395.61 602.83 393.63C595.06 389.25 581.24 383.48 581.5 373C590 368.79 602.01 374.33 610.31 366.82C622.55 355.75 620.04 320.17 600.04 318.87C599.14 318.65 598.23 318.44 597.32 318.23C593.88 318.13 590.44 318.04 587 317.94C585 317.83 583 317.71 581 317.59C566.05 317.6 551.09 317.6 536.14 317.61ZM386 318.23C384.33 318.2 382.67 318.18 381 318.15C369.03 316.83 356.54 317.58 344.5 317.59C332.01 317.59 318.87 316.96 306.72 320.32C270.67 330.27 275.9 372.33 275.82 401.5C275.79 409.5 275.74 417.5 275.78 425.5C275.88 444.57 272.34 477.81 283.56 493.94C293.1 507.67 310.1 509.61 325.5 510.14C343.51 510.76 361.5 510.64 379.5 509.95C392.94 509.43 408.33 508.95 413.5 494.04C415.11 489.39 416.05 484.41 416.1 479.5C416.15 475.82 415.85 472.09 415.06 468.49C411.37 451.71 399.3 450.81 384.5 450.93C378.5 450.98 372.5 450.99 366.5 451.05C359.86 451.11 353.13 451.31 346.5 450.98C343.86 450.85 340.22 450.36 338.67 447.82C337.67 446.18 337.88 444.32 337.83 442.5C342 436.35 352.9 438.85 359.5 438.89C372.56 438.96 389.54 440.19 393.8 424.43C394.74 420.97 395.52 417.06 395.78 413.49C396.03 410.15 395.51 406.78 394.92 403.5C391.24 383.16 367.91 387.51 352.5 387.27C348 387.21 343.15 388.17 339.29 385.5C337.14 375.59 347.72 376.91 354.5 376.93C364.5 376.97 374.5 377.09 384.5 376.87C391.22 376.72 398.34 376.84 403.82 372.33C409.97 367.26 411.3 360.01 412.06 352.5C414.02 333.23 408.24 317.15 386 318.23ZM945.66 318.38C941.63 318.85 937.48 319.75 933.69 321.23C915.13 328.46 913.65 348.29 912.93 365.5C912.35 379.24 913.01 392.76 913.31 406.5C913.53 416.61 911.78 437.34 917.01 445.47C922.38 453.83 935.43 455.88 944.5 455.86C967.11 455.8 967.89 434.74 972.23 417.59C977.13 398.17 986.96 369.97 986.8 350.5C986.66 334.34 975.84 323.33 960.8 319.6C955.8 318.35 950.81 317.79 945.66 318.38ZM728.57 320.31C722.63 320.98 716.36 321.79 710.92 324.43C684.88 337.07 688.21 371.28 688.14 395.5C688.12 402.5 688.1 409.5 688.08 416.5C688.04 432.18 688.1 447.83 688.87 463.5C689.42 474.57 689.96 485.71 696.25 495.26C703 505.49 715.06 508.19 726.5 509.19C744.05 510.72 761.95 510.66 779.5 509.24C787.67 508.58 796.33 508.69 804.04 505.52C822.51 497.93 825.62 460.83 810.52 448.97C801 441.49 780.12 444.75 768.5 444.66C762.98 444.62 753.64 446 750.3 440.22C748.72 437.48 748.53 433.59 748.23 430.5C747.2 419.75 747.43 408.25 748.31 397.5C748.65 393.42 748.72 388.51 752.38 385.9C757.28 382.39 764.82 383.54 770.5 383.55C789.62 383.57 810.44 387.41 815.45 363.86C816.38 359.5 817.07 354.97 816.89 350.5C816.74 346.81 816.21 342.99 815.22 339.43C809.04 317.19 790.44 320.23 771.5 319.75C757.37 319.39 742.64 318.72 728.57 320.31ZM562.27 463.5C559.95 458.71 559.8 452.89 555.32 449.15C550.03 444.74 541.95 444.83 535.5 444.92C526.53 445.06 516.78 446.04 509.95 452.46C498.48 463.24 498.76 495.63 510.1 506.41C519.28 515.15 535.84 513.78 547.5 514.38C579.19 515.99 610.85 514.37 642.5 512.87C656.1 512.22 676.33 512.67 680.53 496.11C683.93 482.72 680.54 465.39 664.94 462.54C656.66 461.03 647.81 462.32 639.5 462.85C621.87 463.96 604.17 464.8 586.5 465.01C579.19 465.09 568.92 466.84 562.27 463.5ZM926.67 458.35C906.26 461.99 898.31 486.24 909.8 502.71C917.67 514 935.64 516.91 947.86 512.39C964.16 506.37 972.9 484.39 961.94 469.6C954.17 459.1 938.85 456.18 926.67 458.35ZM383.5 556.7C387.58 558.15 391.35 560.47 395.35 562.22C403.33 565.7 413.72 568.49 422.48 567.76C431.85 566.97 437.04 557.3 432.66 548.8C428.65 541.02 415.87 542.22 408.68 539.75C406.25 538.92 402.52 537.69 400.96 535.5C398.61 532.23 399.29 528.6 395.26 526.24C388.69 522.4 376.93 522.29 371.22 527.73C365.87 532.83 368.55 535.4 359.51 539.05C350.72 542.59 331.42 541.11 330.37 553.57C329.54 563.48 336.69 567.4 345.54 567.55C358.92 567.77 371.97 563.1 383.5 556.7ZM764.02 554.5C764.54 558.57 762.75 563.67 765.14 567.32C769.12 573.4 785.62 572.49 790.54 568.04C797.46 561.79 797.75 539.68 791.65 532.83C786.2 526.7 775.94 527.22 768.5 526.97C750.51 526.35 732.49 526.12 714.5 526.81C706.09 527.13 696.15 527.76 693.78 537.44C690.78 549.66 698.86 553.97 709.5 553.97C722.51 553.98 735.49 552.16 748.5 552.08C753.65 552.05 759.85 551.1 764.02 554.5ZM585.81 528.46C577.52 529.5 569.47 531.81 563.43 537.92C552.08 549.39 552.25 572.59 563.12 584.38C574.45 596.67 597.84 596.4 612.2 590.62C632.62 582.41 637.97 553.61 622.56 537.92C613.32 528.52 598.29 526.88 585.81 528.46ZM645.66 529.29C634.01 531.5 634.86 544.33 634.93 553.5C634.98 560.17 634.9 566.83 634.99 573.5C635.17 587.01 637.15 595.87 653.48 593.83C667.1 592.12 666.28 578.1 666.38 567.5C666.51 554.54 671.25 530.05 652.5 529.03C650.25 528.91 647.88 528.87 645.66 529.29ZM858.01 530.99C856.95 532.27 855.9 533.55 854.85 534.84C854.4 537.28 853.95 539.73 853.5 542.18C847.84 542.28 842.17 542.39 836.51 542.5C835.41 538.98 835.77 535.35 833.1 532.39C827.51 526.21 814.56 527.86 809.92 534.38C806.41 539.3 807.03 545.76 806.97 551.5C806.84 563.9 803.05 587.76 818.03 592.47C827.1 595.32 853.08 594.7 862.96 593.48C868.14 592.84 874.34 591.53 877.91 587.39C881.21 583.56 881.7 578.31 882.07 573.5C882.76 564.4 883.93 546.58 881.5 537.98C878.95 528.92 865.05 524.93 858.01 530.99ZM890.86 533.97C890.57 534.6 890.27 535.23 889.97 535.86C887.57 539.58 888.21 545.02 888.12 549.5C887.9 559.15 888.04 568.84 888.08 578.5C888.09 583.07 887.76 588.98 890.58 592.9C895.41 599.61 911 598.79 915.12 591.63C918.16 586.36 916.7 580.14 917.87 574.5C921.24 573.83 925.2 573.92 927.94 571.45C932.35 567.46 932.57 555.48 927.88 551.61C924.94 549.2 920.96 549.96 917.5 549.38C916.7 544.13 918.05 538.37 914.89 533.65C910.3 526.76 894.59 526.25 890.86 533.97ZM542.3 567.5C542 558.67 544.53 543.17 539.92 535.62C534.66 527.01 518.46 527.18 513.84 536.34C510.36 543.23 511.94 553 511.88 560.5C511.74 578.5 511.73 596.5 511.67 614.5C511.65 622.06 509.66 633.77 516.22 639.29C519.17 641.77 522.81 642.09 526.5 642.14C541.59 642.32 541.81 632.79 542.12 620.5C542.31 612.83 542.02 605.16 542.37 597.5C545.57 596.54 548.93 596.5 551.51 594C556.87 588.82 556.62 575.49 550.99 570.5C548.5 568.29 545.26 568.42 542.3 567.5ZM472.62 596.5C480.84 592.06 491.94 597.37 500.3 591.81C510.47 585.04 508.33 560.12 507.19 549.5C506.67 544.72 506.02 539.66 502.38 536.13C498.92 532.78 494.07 532.23 489.5 531.95C479.29 531.32 468.69 531.29 458.5 532.24C453.17 532.74 447.63 534.45 445.3 539.76C444.37 541.88 443.98 544.2 444.02 546.5C444.37 567.04 466.39 555.76 477.5 560.02C479.2 562.47 479.04 564.6 478.47 567.5C470.55 572.81 459.11 567.23 450.57 572.02C445.98 574.6 444.03 579.58 443.19 584.55C442.36 589.44 442.69 594.55 442.65 599.5C442.58 608.99 441.08 621.64 448.41 629.07C451.92 632.62 456.75 633.34 461.51 633.77C471.71 634.68 482.37 634.24 492.55 633.31C498.9 632.72 505.03 631.77 507.43 624.92C508.22 622.66 508.74 619.94 508.66 617.54C507.93 595.88 483.51 611.06 472.67 604.5C471.57 601.63 471.45 599.35 472.62 596.5ZM591.72 552.38C603.41 550.65 607.51 566.89 596.24 569.63C582.44 572.98 579.06 554.25 591.72 552.38ZM729.04 559C725.68 560.72 724.43 562.89 723.96 566.62C723.69 568.58 723.43 570.54 723.16 572.5C714.98 573.98 705.87 572.81 697.5 573.05C693.98 573.15 690.23 573.46 687.59 576.09C682.63 581.03 683.36 592.39 690.28 595.25C698.83 598.78 718.09 595.75 727.5 595C743.6 593.73 759.45 595.78 775.5 596.31C782.63 596.55 796.58 599.03 800.4 590.92C803.59 584.18 801.32 575.8 793.43 574.26C780.5 571.73 766.34 575.6 753.61 572.5C752.99 568.9 753.63 565.25 751.45 562.06C747.39 556.13 734.55 555.44 729.04 559ZM853.57 563.5C853.57 565.83 853.57 568.17 853.57 570.5C848.4 572.3 841.73 572.48 836.5 570.83C835.26 568.06 835.26 566.3 836.37 563.5C840.9 561.21 848.87 562.17 853.57 563.5ZM333.57 570.34C323.89 571.74 322.43 586.6 331.9 589.53C340.26 592.12 352.73 590 361.5 589.86C373.83 589.67 386.17 589.49 398.5 589.69C404.2 589.78 409.86 590.6 415.55 590.46C423.29 590.28 437.92 592.78 438.77 581.47C439.74 568.46 424.24 569.97 415.5 570.03C396.17 570.18 376.83 569.87 357.5 570.07C349.68 570.16 341.32 569.23 333.57 570.34ZM366.5 627.58C367.99 623.88 378.76 625.29 382.5 625.27C393.77 625.22 405.32 625.87 416.51 624.27C422.31 623.44 428.31 621.75 430.18 615.55C430.86 613.29 431.01 610.86 431.03 608.5C431.19 592.66 417.58 593.11 405.5 593.13C399.83 593.14 394.17 593.09 388.5 593.1C384.83 593.1 381.17 593.1 377.5 593.1C372.5 593.09 367.5 593.13 362.5 593.17C355.92 593.24 338.78 590.77 335.88 598.49C332.78 606.77 342.82 608.46 348.5 608.45C360.83 608.43 373.16 607.79 385.5 607.77C389.81 607.76 396.69 606.42 399.82 609.5C396.54 613.13 389.18 611.59 384.5 611.64C380.83 611.67 377.17 611.61 373.5 611.61C360.07 611.63 333.98 607.12 334.48 627.33C334.86 642.85 344.21 644.53 357.46 645.4C372.75 646.4 388.19 646.02 403.5 645.84C410.51 645.76 427.59 647.33 430.7 639.25C434.32 629.84 425.9 627.47 418.5 627.9C406.15 628.62 393.89 629.46 381.5 629.26C376.71 629.19 370.53 630.08 366.5 627.58ZM582.71 596.38C579.69 596.79 576.6 597.19 573.74 598.29C563.39 602.27 563.76 613.14 563.83 622.5C563.87 628.12 563.98 635.04 568.15 639.36C573.89 645.29 582.85 645.36 590.5 645.61C607.77 646.16 625.24 646.41 642.5 645.36C650.43 644.88 659.72 644.18 663.72 636.24C668.24 627.25 668.57 603.7 658.02 598.49C650.55 594.81 641.56 595.93 633.5 595.89C623.17 595.84 612.83 595.86 602.5 595.94C595.95 596 589.21 595.52 582.71 596.38ZM829.16 601.07C827.09 602.33 825.03 603.59 822.96 604.85C811.02 610.34 813.82 631.33 823.36 638.1C830.21 642.96 839.37 644.26 847.5 645.12C861.77 646.64 876.35 646.46 890.5 644.03C899.26 642.53 910.95 639.17 914.36 629.81C915.31 627.2 915.92 624.28 915.96 621.5C916.4 595.64 880.7 595.63 862.5 595.83C857.77 595.88 853 596 848.31 596.64C842.16 597.48 834.37 597.44 829.16 601.07ZM708.86 600.95C706.61 601.95 704.36 602.95 702.11 603.95C689.09 609.47 689.82 630.49 700.32 638.15C705.33 641.81 712.49 643.05 718.44 644.26C734.56 647.52 753.39 646.96 769.5 643.91C778.68 642.16 788.9 638.61 792.59 629.15C793.55 626.7 793.94 624.13 793.97 621.5C794.32 596.92 759.79 597.1 742.5 596.98C737.81 596.95 733.12 597.21 728.45 597.61C722.44 598.12 713.96 597.88 708.86 600.95ZM885.06 621.5C882.92 624.61 879.96 625.14 876.27 625.6C869.09 626.51 851.23 627.99 846.76 621.5C847.79 617.01 851.19 616.65 855.5 616.08C862.33 615.18 869.68 614.89 876.5 615.93C878.64 616.26 882.63 616.62 884.12 618.37C884.98 619.4 884.82 620.27 885.06 621.5ZM635 618.5C635 620.19 635 621.88 635 623.57C627.35 626.82 616.75 625.29 608.5 625.2C605.4 625.17 601.12 625.71 598.24 624.32C595.71 623.1 596.04 620.89 596.1 618.5C600.99 614.28 618.74 615.79 625.5 616C629.09 616.11 632.4 616.08 635 618.5ZM762.5 619.8C762.34 624.25 758.3 625.12 754.33 625.62C747.57 626.48 740.35 626.36 733.59 625.62C731.28 625.37 727.84 625.16 726.09 623.4C725.14 622.45 725.23 621.71 724.87 620.5C726.89 617.04 729.9 616.92 733.72 616.37C740.51 615.39 757.68 614.33 762.5 619.8Z" fill="#290d37" fill-rule="evenodd" stroke="#290d37" stroke-width="0.25" stroke-linejoin="round"/>
<path d="M422.5 440.18C417.6 438.37 412.09 439.54 408 435.49C399.6 427.16 399.43 400.65 407.78 392.27C412.12 387.91 417.88 389.04 422.88 386.5C424.19 382.17 423.48 377.23 423.5 372.69C423.56 355.42 418.95 321.22 441.19 315.59C445.14 314.59 449.43 314.14 453.5 314.14C458.88 314.13 464.94 314.85 469.48 317.98C482.84 327.2 479.9 346.45 479.86 360.5C479.75 396.16 480.13 431.84 479.79 467.5C479.66 480.64 481.47 500.13 469.93 509.44C465.36 513.14 459.27 514.74 453.5 515.05C449.87 515.24 446.03 515 442.48 514.2C418.27 508.71 423.64 477.16 423.55 458.5C423.52 452.98 425.2 445.05 422.5 440.18ZM381 318.15C381.17 318.43 381.33 318.72 381.5 319C382.83 319 384.17 319 385.5 319C385.67 318.74 385.83 318.49 386 318.23C408.24 317.15 414.02 333.23 412.06 352.5C411.3 360.01 409.97 367.26 403.82 372.33C398.34 376.84 391.22 376.72 384.5 376.87C374.5 377.09 364.5 376.97 354.5 376.93C347.72 376.91 337.14 375.59 339.29 385.5C343.15 388.17 348 387.21 352.5 387.27C367.91 387.51 391.24 383.16 394.92 403.5C395.51 406.78 396.03 410.15 395.78 413.49C395.52 417.06 394.74 420.97 393.8 424.43C389.54 440.19 372.56 438.96 359.5 438.89C352.9 438.85 342 436.35 337.83 442.5C337.88 444.32 337.67 446.18 338.67 447.82C340.22 450.36 343.86 450.85 346.5 450.98C353.13 451.31 359.86 451.11 366.5 451.05C372.5 450.99 378.5 450.98 384.5 450.93C399.3 450.81 411.37 451.71 415.06 468.49C415.85 472.09 416.15 475.82 416.1 479.5C416.05 484.41 415.11 489.39 413.5 494.04C408.33 508.95 392.94 509.43 379.5 509.95C361.5 510.64 343.51 510.76 325.5 510.14C310.1 509.61 293.1 507.67 283.56 493.94C272.34 477.81 275.88 444.57 275.78 425.5C275.74 417.5 275.79 409.5 275.82 401.5C275.9 372.33 270.67 330.27 306.72 320.32C318.87 316.96 332.01 317.59 344.5 317.59C356.54 317.58 369.03 316.83 381 318.15ZM457.5 323.48C454.78 320.49 452.39 320.82 448.5 321.09C439.11 321.75 432.72 327.11 431.19 336.5C430.52 340.6 430.12 343.74 433.5 346.49C439.21 345.58 437.91 336.06 442.52 331.97C447.77 327.32 457.68 331.22 457.5 323.48ZM343.5 333.5C345.81 323 332.33 325.79 325.53 326.39C307.72 327.95 292.75 333.67 288.01 352.49C286.73 357.57 284.74 364.59 288.95 368.5C291.11 368.79 293.08 369.11 294.68 367.22C296.5 365.05 296.36 361.23 297.07 358.57C298.71 352.45 301.95 347.36 306.95 343.43C313.4 338.35 321.57 336.85 329.5 336.08C334.29 335.62 339.61 336.69 343.5 333.5ZM362.5 333.14C363.92 325.53 356.59 323.69 352.71 329.41C352.71 330.77 352.71 332.14 352.71 333.5C356.07 335.04 359.43 335.53 362.5 333.14Z" fill="#fa2d7c" fill-rule="evenodd" stroke="#fa2d7c" stroke-width="0.25" stroke-linejoin="round"/>
<path d="M381 318.15C382.67 318.18 384.33 318.2 386 318.23C385.83 318.49 385.67 318.74 385.5 319C384.17 319 382.83 319 381.5 319C381.33 318.72 381.17 318.43 381 318.15ZM945.66 318.38C950.81 317.79 955.8 318.35 960.8 319.6C975.84 323.33 986.66 334.34 986.8 350.5C986.96 369.97 977.13 398.17 972.23 417.59C967.89 434.74 967.11 455.8 944.5 455.86C935.43 455.88 922.38 453.83 917.01 445.47C911.78 437.34 913.53 416.61 913.31 406.5C913.01 392.76 912.35 379.24 912.93 365.5C913.65 348.29 915.13 328.46 933.69 321.23C937.48 319.75 941.63 318.85 945.66 318.38ZM954.51 330.5C953.84 323.53 946.21 324.17 940.68 325.33C930.25 327.51 923.77 336.41 922.08 346.5C921.36 350.78 920.59 354.9 924.5 357.68C931.86 357.01 930.69 345.47 935.62 340.14C941.22 334.07 951.21 336.12 954.51 330.5ZM926.67 458.35C938.85 456.18 954.17 459.1 961.94 469.6C972.9 484.39 964.16 506.37 947.86 512.39C935.64 516.91 917.67 514 909.8 502.71C898.31 486.24 906.26 461.99 926.67 458.35ZM934.7 467.5C934.58 461.46 930.51 462.46 925.56 463.31C918.83 464.47 906.43 474.46 912.5 481.83C913.6 481.82 914.11 482.3 915.21 481.8C915.86 481.49 919.55 474.12 921.83 472.34C925.72 469.32 931.11 470.51 934.7 467.5ZM764.02 554.5C759.85 551.1 753.65 552.05 748.5 552.08C735.49 552.16 722.51 553.98 709.5 553.97C698.86 553.97 690.78 549.66 693.78 537.44C696.15 527.76 706.09 527.13 714.5 526.81C732.49 526.12 750.51 526.35 768.5 526.97C775.94 527.22 786.2 526.7 791.65 532.83C797.75 539.68 797.46 561.79 790.54 568.04C785.62 572.49 769.12 573.4 765.14 567.32C762.75 563.67 764.54 558.57 764.02 554.5ZM718.38 531.5C717.87 530.69 718.02 530.06 717.12 529.5C713.13 527 700.27 529.63 697.39 533.86C694.59 537.98 697.46 539.44 697.47 541.46C697.48 544.27 694.52 542.39 698.5 544.99C700.32 542.16 699.45 538.49 702.44 535.93C706.91 532.09 713.82 534.59 718.38 531.5ZM726.11 529.65C724.52 529.65 722.93 529.65 721.34 529.65C721.18 530.6 721.03 531.55 720.87 532.5C724.99 532.69 724.42 533.06 726.11 529.65ZM854.85 534.84C855.4 536.18 855.95 537.52 856.5 538.87C858.86 536.41 861.23 533.96 863.59 531.5C861.73 531.33 859.87 531.16 858.01 530.99C865.05 524.93 878.95 528.92 881.5 537.98C883.93 546.58 882.76 564.4 882.07 573.5C881.7 578.31 881.21 583.56 877.91 587.39C874.34 591.53 868.14 592.84 862.96 593.48C853.08 594.7 827.1 595.32 818.03 592.47C803.05 587.76 806.84 563.9 806.97 551.5C807.03 545.76 806.41 539.3 809.92 534.38C814.56 527.86 827.51 526.21 833.1 532.39C835.77 535.35 835.41 538.98 836.51 542.5C842.17 542.39 847.84 542.28 853.5 542.18C853.95 539.73 854.4 537.28 854.85 534.84ZM889.97 535.86C890.3 538.92 889.49 542.37 891.5 544.71C894.01 542.8 893.45 539.61 895.51 537.03C897.46 534.59 900.88 534.29 902.8 532.5C898.56 529.11 894.98 532.48 890.86 533.97C894.59 526.25 910.3 526.76 914.89 533.65C918.05 538.37 916.7 544.13 917.5 549.38C920.96 549.96 924.94 549.2 927.88 551.61C932.57 555.48 932.35 567.46 927.94 571.45C925.2 573.92 921.24 573.83 917.87 574.5C916.7 580.14 918.16 586.36 915.12 591.63C911 598.79 895.41 599.61 890.58 592.9C887.76 588.98 888.09 583.07 888.08 578.5C888.04 568.84 887.9 559.15 888.12 549.5C888.21 545.02 887.57 539.58 889.97 535.86ZM822.5 533.22C817.19 525.69 804.96 538.62 810.5 545.68C813.79 544.17 812.9 539.81 815.6 537.09C817.61 535.05 820.76 535.23 822.5 533.22ZM892.5 546.99C890.17 547.92 890.44 547.83 890.32 550.5C890.72 550.84 891.11 551.19 891.5 551.53C892.98 549.84 892.82 549.14 892.5 546.99ZM811.5 548.61C808.39 548.96 809.33 551.52 810.5 553.45C811.86 551.47 811.83 551.14 811.5 548.61ZM723.96 566.62C724.81 567.3 725.65 567.98 726.5 568.67C730.88 562.65 728.95 564.29 735.5 560.51C733.62 558.65 731.49 559.09 729.04 559C734.55 555.44 747.39 556.13 751.45 562.06C753.63 565.25 752.99 568.9 753.61 572.5C766.34 575.6 780.5 571.73 793.43 574.26C801.32 575.8 803.59 584.18 800.4 590.92C796.58 599.03 782.63 596.55 775.5 596.31C759.45 595.78 743.6 593.73 727.5 595C718.09 595.75 698.83 598.78 690.28 595.25C683.36 592.39 682.63 581.03 687.59 576.09C690.23 573.46 693.98 573.15 697.5 573.05C705.87 572.81 714.98 573.98 723.16 572.5C723.43 570.54 723.69 568.58 723.96 566.62ZM853.57 563.5C848.87 562.17 840.9 561.21 836.37 563.5C835.26 566.3 835.26 568.06 836.5 570.83C841.73 572.48 848.4 572.3 853.57 570.5C853.57 568.17 853.57 565.83 853.57 563.5ZM701.54 576.5C697.72 573.17 689.3 574.91 687.54 579.5C687.54 582.13 687.54 584.75 687.54 587.38C688.01 587.02 688.74 587.27 689.28 587.03C689.54 586.92 691.41 581.13 693.29 579.79C695.88 577.95 699.34 578.52 701.54 576.5ZM708.82 576.5C707.27 574.95 706.76 574.99 704.4 575.5C705.24 578.18 706.42 577.83 708.82 576.5ZM822.96 604.85C821.45 608.8 816.41 611.62 819.5 616.53C820.56 616.36 820.23 616.9 821.18 616.55C822.49 616.08 823.08 613.33 823.68 612.23C824.95 609.9 826.67 607.81 828.95 606.39C832.1 604.43 839.74 604.85 840.5 601.23C836.78 598.87 833.22 601.26 829.16 601.07C834.37 597.44 842.16 597.48 848.31 596.64C853 596 857.77 595.88 862.5 595.83C880.7 595.63 916.4 595.64 915.96 621.5C915.92 624.28 915.31 627.2 914.36 629.81C910.95 639.17 899.26 642.53 890.5 644.03C876.35 646.46 861.77 646.64 847.5 645.12C839.37 644.26 830.21 642.96 823.36 638.1C813.82 631.33 811.02 610.34 822.96 604.85ZM702.11 603.95C701.03 608.41 692.81 611.52 697.5 616.81C701.27 614.88 702.54 609.64 706.86 607.33C709.98 605.66 717.73 605.22 718.5 602.33C715.4 600.04 712.57 601.06 708.86 600.95C713.96 597.88 722.44 598.12 728.45 597.61C733.12 597.21 737.81 596.95 742.5 596.98C759.79 597.1 794.32 596.92 793.97 621.5C793.94 624.13 793.55 626.7 792.59 629.15C788.9 638.61 778.68 642.16 769.5 643.91C753.39 646.96 734.56 647.52 718.44 644.26C712.49 643.05 705.33 641.81 700.32 638.15C689.82 630.49 689.09 609.47 702.11 603.95ZM724.88 603.2C724.06 599.75 724.33 599.4 720.5 601.02C720.52 601.75 720.54 602.47 720.56 603.2C722 603.2 723.44 603.2 724.88 603.2ZM845.77 600.5C843.77 600.4 843.88 600.14 843.5 601.95C844.26 601.47 845.01 600.98 845.77 600.5ZM885.06 621.5C884.82 620.27 884.98 619.4 884.12 618.37C882.63 616.62 878.64 616.26 876.5 615.93C869.68 614.89 862.33 615.18 855.5 616.08C851.19 616.65 847.79 617.01 846.76 621.5C851.23 627.99 869.09 626.51 876.27 625.6C879.96 625.14 882.92 624.61 885.06 621.5ZM762.5 619.8C757.68 614.33 740.51 615.39 733.72 616.37C729.9 616.92 726.89 617.04 724.87 620.5C725.23 621.71 725.14 622.45 726.09 623.4C727.84 625.16 731.28 625.37 733.59 625.62C740.35 626.36 747.57 626.48 754.33 625.62C758.3 625.12 762.34 624.25 762.5 619.8ZM698.5 619.45C695.69 619.6 694.9 619.97 696.5 622.73C698.33 621.77 698.48 621.7 698.5 619.45ZM820.5 619.04C818.78 620.53 818.64 620.18 819.5 622.65C820.96 621.21 820.76 621.07 820.5 619.04Z" fill="#bd46fa" fill-rule="evenodd" stroke="#bd46fa" stroke-width="0.25" stroke-linejoin="round"/>
<path d="M656 314.36C653.29 314.42 650.58 314.48 647.87 314.54C650.58 314.48 653.29 314.42 656 314.36ZM881.5 381.24C886.96 382.23 892.1 381.96 896.46 386.03C905.77 394.73 905.46 423.13 896.44 431.95C892.23 436.07 886.3 436.19 880.93 437.5C880.12 453.45 881.26 469.52 880.27 485.5C879.41 499.46 875.57 511.4 860.22 514.57C856.73 515.29 853.05 515.44 849.5 515.25C843.61 514.94 837.7 513.23 833.04 509.48C821.84 500.46 824.74 479.21 824.4 466.5C823.59 435.9 824.64 405.12 824.69 374.5C824.72 360.37 822.44 340.11 828.65 327.18C837.87 307.96 873.77 309.42 879.71 330.68C882.67 341.3 881.59 353.58 881.24 364.5C881.06 369.97 880.12 375.99 881.5 381.24ZM581 317.59C566.05 317.6 551.09 317.6 536.14 317.61C551.09 317.6 566.05 317.6 581 317.59ZM728.57 320.31C742.64 318.72 757.37 319.39 771.5 319.75C790.44 320.23 809.04 317.19 815.22 339.43C816.21 342.99 816.74 346.81 816.89 350.5C817.07 354.97 816.38 359.5 815.45 363.86C810.44 387.41 789.62 383.57 770.5 383.55C764.82 383.54 757.28 382.39 752.38 385.9C748.72 388.51 748.65 393.42 748.31 397.5C747.43 408.25 747.2 419.75 748.23 430.5C748.53 433.59 748.72 437.48 750.3 440.22C753.64 446 762.98 444.62 768.5 444.66C780.12 444.75 801 441.49 810.52 448.97C825.62 460.83 822.51 497.93 804.04 505.52C796.33 508.69 787.67 508.58 779.5 509.24C761.95 510.66 744.05 510.72 726.5 509.19C715.06 508.19 703 505.49 696.25 495.26C689.96 485.71 689.42 474.57 688.87 463.5C688.1 447.83 688.04 432.18 688.08 416.5C688.1 409.5 688.12 402.5 688.14 395.5C688.21 371.28 684.88 337.07 710.92 324.43C716.36 321.79 722.63 320.98 728.57 320.31ZM858.03 325.5C856.91 319.29 852.66 320.28 847.5 321.03C839.17 322.23 833.98 327.49 831.9 335.46C830.65 340.23 830.17 345.28 835.5 346.82C840.62 343.75 838.35 336.4 843.45 331.92C847.93 327.98 854.92 330.52 858.03 325.5ZM753.5 329.81C749.19 326.42 743.64 327.8 738.5 328.04C724.31 328.72 707.67 332.54 701.88 347.38C699.56 353.34 696.02 363.26 700.92 368.5C709.67 370 707.98 361.53 710.11 355.64C712.01 350.39 715.72 345.81 720.53 342.97C727.42 338.89 735.7 337.89 743.5 337.16C745.95 336.93 748.7 337.31 751.04 336.46C754.28 335.28 753.99 332.62 753.5 329.81Z" fill="#72de12" fill-rule="evenodd" stroke="#72de12" stroke-width="0.25" stroke-linejoin="round"/>
<path d="M656 314.36C668.75 315.21 676.19 322.96 677.82 335.51C679.01 344.69 678.2 354.26 678.21 363.5C678.25 383.51 678.17 403.5 677.6 423.5C677.21 437.23 676.08 453.59 660.14 457.55C657.06 458.31 653.67 458.49 650.5 458.44C640.31 458.25 630.98 454.22 627.54 443.97C623.65 432.42 625.68 418.51 625.58 406.5C625.47 392.17 625.58 377.83 625.61 363.5C625.63 354.67 625.03 345.38 626.32 336.63C628.27 323.37 634.42 316.28 647.87 314.54C650.58 314.48 653.29 314.42 656 314.36ZM517 318.21C517.17 318.84 517.33 319.47 517.5 320.11C522.5 319.77 527.5 319.44 532.5 319.11C532.67 318.73 532.83 318.35 533 317.96C534.05 317.85 535.09 317.73 536.14 317.61C551.09 317.6 566.05 317.6 581 317.59C583 317.71 585 317.83 587 317.94C586.5 318.8 586 319.67 585.5 320.53C589.7 319.24 595.93 320.61 600.5 321.56C600.35 320.67 600.2 319.77 600.04 318.87C620.04 320.17 622.55 355.75 610.31 366.82C602.01 374.33 590 368.79 581.5 373C581.24 383.48 595.06 389.25 602.83 393.63C606.35 395.61 610.15 397.56 612.97 400.51C620.36 408.25 619.98 422.11 615.69 431.24C614.43 433.92 612.64 436.96 610.38 438.9C592.13 454.61 570.18 436.42 556.5 424.32C553.07 426.72 550.33 429.96 546.96 432.47C534.08 442.06 505.66 454.83 495.74 434.73C489.99 423.09 491.15 404.98 502.87 397.4C511.49 391.82 529.92 384.58 529.6 372.5C520.76 370.99 510.31 373.69 502.02 369.47C490.31 363.51 489.27 336.91 496.93 327.8C498.82 326.84 499.39 326.54 501.5 326.58C502.5 325.63 503.5 324.67 504.5 323.71C504.77 323.31 505.03 322.9 505.3 322.5C504.87 322.1 504.43 321.7 504 321.3C508.01 319.25 512.52 318.25 517 318.21ZM597.32 318.23C598.23 318.44 599.14 318.65 600.04 318.87C598.7 319.08 597.35 319.29 596 319.5C596.44 319.08 596.88 318.65 597.32 318.23ZM649.8 320.66C647.7 320.86 645.6 321.06 643.5 321.26C643 321.74 642.5 322.22 642 322.7C633.68 325.25 626.75 343.14 635.5 346.6C640.41 343.82 637.72 337.68 642.3 332.8C647.49 327.28 653.17 329.72 657.5 325.97C657.81 321.06 654.19 319.91 649.8 320.66ZM517 324.7C506 326.25 497.22 332.26 498.52 344.5C500.18 344.88 501.84 345.26 503.5 345.64C505.98 342.89 505.81 339 508.83 336.33C515.03 330.86 528.18 331.66 536 331.91C538 331.88 540 331.84 542 331.81C546.44 331.53 550.93 332.46 554.54 329.5C554.84 322.97 551.23 324.19 546 324.05C539.86 322.88 532.83 323.74 526.5 323.75C523.33 323.75 519.76 323.28 517 324.7ZM566.16 325.5C564.61 325.5 563.06 325.5 561.51 325.5C561.51 327.19 561.51 328.87 561.51 330.56C563 330.42 563.81 330.1 564.6 331.5C567.3 329.75 567.18 328.51 566.16 325.5ZM504.5 348.58C502.07 347.61 501.19 347.73 498.78 348.5C498.21 351.28 499.2 352.09 501.5 353.64C504.34 352.36 504.68 351.63 504.5 348.58ZM534.72 385.5C529.28 380.96 526.83 388.11 522.76 391.33C514.13 398.17 498.45 400.98 498.49 414.5C500.21 415.75 502.7 416.64 504.58 415.09C506.41 413.59 507.61 408.74 511.46 405.89C513.7 404.24 516.34 403.52 518.73 402.2C524.6 398.96 533.9 392.49 534.72 385.5ZM503.5 420.07C501.27 419.2 500.61 419.19 498.5 420.19C498.49 422.79 499.17 423.37 501.5 424.51C503.34 422.99 503.61 422.43 503.5 420.07ZM562.27 463.5C568.92 466.84 579.19 465.09 586.5 465.01C604.17 464.8 621.87 463.96 639.5 462.85C647.81 462.32 656.66 461.03 664.94 462.54C680.54 465.39 683.93 482.72 680.53 496.11C676.33 512.67 656.1 512.22 642.5 512.87C610.85 514.37 579.19 515.99 547.5 514.38C535.84 513.78 519.28 515.15 510.1 506.41C498.76 495.63 498.48 463.24 509.95 452.46C516.78 446.04 526.53 445.06 535.5 444.92C541.95 444.83 550.03 444.74 555.32 449.15C559.8 452.89 559.95 458.71 562.27 463.5ZM535.5 451.73C532.66 449.11 527.94 450.1 524.36 450.77C514.35 452.64 506.31 460.64 508.5 471.56C510.2 471.79 512.29 472.55 513.72 471.19C514.69 470.26 514.69 467.85 515.11 466.65C516.13 463.69 518.45 461.14 521.15 459.59C526.27 456.63 535.97 458.87 535.5 451.73ZM512.5 480.53C514.82 476.84 511.91 475.78 508.5 476.72C508.52 480.06 509.23 480.49 512.5 480.53Z" fill="#fba803" fill-rule="evenodd" stroke="#fba803" stroke-width="0.25" stroke-linejoin="round"/>
<path d="M383.5 556.7C371.97 563.1 358.92 567.77 345.54 567.55C336.69 567.4 329.54 563.48 330.37 553.57C331.42 541.11 350.72 542.59 359.51 539.05C368.55 535.4 365.87 532.83 371.22 527.73C376.93 522.29 388.69 522.4 395.26 526.24C399.29 528.6 398.61 532.23 400.96 535.5C402.52 537.69 406.25 538.92 408.68 539.75C415.87 542.22 428.65 541.02 432.66 548.8C437.04 557.3 431.85 566.97 422.48 567.76C413.72 568.49 403.33 565.7 395.35 562.22C391.35 560.47 387.58 558.15 383.5 556.7ZM379.84 527.5C375.11 525.02 368.27 530.82 371.5 535.33C374.49 530.53 376.28 530.76 379.84 527.5ZM585.81 528.46C598.29 526.88 613.32 528.52 622.56 537.92C637.97 553.61 632.62 582.41 612.2 590.62C597.84 596.4 574.45 596.67 563.12 584.38C552.25 572.59 552.08 549.39 563.43 537.92C569.47 531.81 577.52 529.5 585.81 528.46ZM645.66 529.29C647.88 528.87 650.25 528.91 652.5 529.03C671.25 530.05 666.51 554.54 666.38 567.5C666.28 578.1 667.1 592.12 653.48 593.83C637.15 595.87 635.17 587.01 634.99 573.5C634.9 566.83 634.98 560.17 634.93 553.5C634.86 544.33 634.01 531.5 645.66 529.29ZM542.3 567.5C545.26 568.42 548.5 568.29 550.99 570.5C556.62 575.49 556.87 588.82 551.51 594C548.93 596.5 545.57 596.54 542.37 597.5C542.02 605.16 542.31 612.83 542.12 620.5C541.81 632.79 541.59 642.32 526.5 642.14C522.81 642.09 519.17 641.77 516.22 639.29C509.66 633.77 511.65 622.06 511.67 614.5C511.73 596.5 511.74 578.5 511.88 560.5C511.94 553 510.36 543.23 513.84 536.34C518.46 527.18 534.66 527.01 539.92 535.62C544.53 543.17 542 558.67 542.3 567.5ZM650.21 533.5C645.59 527.39 634.24 538.87 638.5 545.16C641.45 543.07 640.67 539.42 643.2 536.71C644.97 534.83 647.91 534.43 650.21 533.5ZM472.62 596.5C471.45 599.35 471.57 601.63 472.67 604.5C483.51 611.06 507.93 595.88 508.66 617.54C508.74 619.94 508.22 622.66 507.43 624.92C505.03 631.77 498.9 632.72 492.55 633.31C482.37 634.24 471.71 634.68 461.51 633.77C456.75 633.34 451.92 632.62 448.41 629.07C441.08 621.64 442.58 608.99 442.65 599.5C442.69 594.55 442.36 589.44 443.19 584.55C444.03 579.58 445.98 574.6 450.57 572.02C459.11 567.23 470.55 572.81 478.47 567.5C479.04 564.6 479.2 562.47 477.5 560.02C466.39 555.76 444.37 567.04 444.02 546.5C443.98 544.2 444.37 541.88 445.3 539.76C447.63 534.45 453.17 532.74 458.5 532.24C468.69 531.29 479.29 531.32 489.5 531.95C494.07 532.23 498.92 532.78 502.38 536.13C506.02 539.66 506.67 544.72 507.19 549.5C508.33 560.12 510.47 585.04 500.3 591.81C491.94 597.37 480.84 592.06 472.62 596.5ZM526.63 533.5C519.86 528.21 511.18 540.5 516.5 545.87C517.74 542.77 518.23 538.68 520.95 536.4C522.64 534.98 524.93 534.81 526.63 533.5ZM585.76 533.5C580.85 529.42 569.67 535.18 565.5 539.01C563.94 540.45 562.81 542.37 561.66 544.13C559.54 547.38 558.03 551.91 560.5 554.91C562.06 554.12 560.71 555.43 562.01 554.44C563.13 553.6 563.35 550.78 563.87 549.48C565.09 546.42 566.77 543.94 569.22 541.71C574.96 536.5 582.19 537.09 585.76 533.5ZM589.02 533.5C589.39 533.48 592.02 533.83 591.47 532.55C590.56 530.4 589.39 533.09 589.02 533.5ZM473.55 534.5C471.07 534.38 470.48 534.47 469.33 536.5C472.49 538.55 473.4 537.94 473.55 534.5ZM465.87 536.5C462.72 533.83 455.02 534.32 451.25 536.81C448.34 538.74 446.09 542.96 448.5 545.68C451.41 544.4 451.42 540.71 454.87 539.35C458.62 537.88 462.99 539.25 465.87 536.5ZM371.04 536.5C369.86 536.53 368.68 536.56 367.5 536.59C367.5 537.64 367.5 538.69 367.5 539.73C368.68 538.66 369.86 537.58 371.04 536.5ZM363.06 541.5C358.61 541.8 353.98 543.24 349.52 544.23C345.71 545.08 341.51 545.19 337.81 546.45C334.07 547.72 332.21 551.93 335.22 554.5C337.63 552.97 338.69 550.23 341.57 549.03C348.52 546.13 357.71 547.6 363.06 541.5ZM639.5 548.1C636.91 549.05 636.75 550.37 638.5 552.69C639.97 551.01 639.86 550.32 639.5 548.1ZM591.72 552.38C579.06 554.25 582.44 572.98 596.24 569.63C607.51 566.89 603.41 550.65 591.72 552.38ZM561.5 558.8C559.8 558.52 560.4 558.46 559.47 559.5C560.15 560.25 560.82 561.01 561.5 561.76C561.5 560.77 561.5 559.79 561.5 558.8ZM333.57 570.34C341.32 569.23 349.68 570.16 357.5 570.07C376.83 569.87 396.17 570.18 415.5 570.03C424.24 569.97 439.74 568.46 438.77 581.47C437.92 592.78 423.29 590.28 415.55 590.46C409.86 590.6 404.2 589.78 398.5 589.69C386.17 589.49 373.83 589.67 361.5 589.86C352.73 590 340.26 592.12 331.9 589.53C322.43 586.6 323.89 571.74 333.57 570.34ZM350.02 573.5C347.8 571.73 345.97 572.5 343.08 572.48C337.43 572.43 326.02 571.04 328.9 580.5C331.64 579.95 331.64 576.96 334.42 575.75C339.33 573.62 345.35 576.07 350.02 573.5ZM468.15 573.5C463.23 570.11 452.36 572.43 448.5 577.3C448.55 578.59 448.89 580.03 448.64 581.3C447.88 585.2 444.05 587.53 446.5 591.66C450.21 589.65 448.33 582.59 452.41 578.92C456.98 574.82 463.99 576.85 468.15 573.5ZM366.5 627.58C370.53 630.08 376.71 629.19 381.5 629.26C393.89 629.46 406.15 628.62 418.5 627.9C425.9 627.47 434.32 629.84 430.7 639.25C427.59 647.33 410.51 645.76 403.5 645.84C388.19 646.02 372.75 646.4 357.46 645.4C344.21 644.53 334.86 642.85 334.48 627.33C333.98 607.12 360.07 611.63 373.5 611.61C377.17 611.61 380.83 611.67 384.5 611.64C389.18 611.59 396.54 613.13 399.82 609.5C396.69 606.42 389.81 607.76 385.5 607.77C373.16 607.79 360.83 608.43 348.5 608.45C342.82 608.46 332.78 606.77 335.88 598.49C338.78 590.77 355.92 593.24 362.5 593.17C367.5 593.13 372.5 593.09 377.5 593.1C381.17 593.1 384.83 593.1 388.5 593.1C394.17 593.09 399.83 593.14 405.5 593.13C417.58 593.11 431.19 592.66 431.03 608.5C431.01 610.86 430.86 613.29 430.18 615.55C428.31 621.75 422.31 623.44 416.51 624.27C405.32 625.87 393.77 625.22 382.5 625.27C378.76 625.29 367.99 623.88 366.5 627.58ZM352.44 596.5C348.09 594.86 338.89 594.46 338.5 600.63C342.87 600.25 341.15 598.22 344.64 597.08C347.05 596.29 349.93 596.57 352.44 596.5ZM362.67 595.5C361.7 595.83 360.73 596.17 359.76 596.5C360.73 596.17 361.7 595.83 362.67 595.5ZM582.71 596.38C589.21 595.52 595.95 596 602.5 595.94C612.83 595.86 623.17 595.84 633.5 595.89C641.56 595.93 650.55 594.81 658.02 598.49C668.57 603.7 668.24 627.25 663.72 636.24C659.72 644.18 650.43 644.88 642.5 645.36C625.24 646.41 607.77 646.16 590.5 645.61C582.85 645.36 573.89 645.29 568.15 639.36C563.98 635.04 563.87 628.12 563.83 622.5C563.76 613.14 563.39 602.27 573.74 598.29C576.6 597.19 579.69 596.79 582.71 596.38ZM585.52 600.5C583.37 598.61 581.19 599.85 578.5 600.25C577.01 600.46 575.49 600.27 574.04 600.64C568.57 602.03 565.32 608.81 568.5 613.21C571.12 610.72 571.7 606.66 574.89 604.36C578.12 602.02 582.26 602.49 585.52 600.5ZM592.62 599.5C590.31 599.1 589.75 599.01 588.34 600.5C590.45 600.75 591.16 600.86 592.62 599.5ZM354.58 614.5C347.87 612.93 336.18 615.71 338.5 624.64C342.53 623.76 340.88 620.99 344.15 618.58C347.47 616.14 352.26 617.56 354.58 614.5ZM569.44 616.5C567.34 616.87 567.48 616.54 567.5 618.86C568.15 618.07 568.8 617.29 569.44 616.5ZM635 618.5C632.4 616.08 629.09 616.11 625.5 616C618.74 615.79 600.99 614.28 596.1 618.5C596.04 620.89 595.71 623.1 598.24 624.32C601.12 625.71 605.4 625.17 608.5 625.2C616.75 625.29 627.35 626.82 635 623.57C635 621.88 635 620.19 635 618.5ZM340.57 627.5C339.75 627.17 338.94 626.83 338.12 626.5C338.4 628.44 337.99 628.34 339.5 629.55C339.86 628.86 340.21 628.18 340.57 627.5Z" fill="#10bbf8" fill-rule="evenodd" stroke="#10bbf8" stroke-width="0.25" stroke-linejoin="round"/>
<path d="M489.5 298C493.96 293.72 502.64 291.95 508.53 291.03C510.77 290.68 513.07 291.24 515.31 290.81C523.38 289.26 532.18 290 540.5 290C554.5 290 568.5 290 582.5 290C593.68 290 608.82 289.93 618.5 296C623.7 293.96 628.1 290.57 633.69 289.19C648.27 285.59 664.17 285.8 678.31 291.19C684.43 293.52 688.77 299.14 694.5 302C702.72 296.84 713.14 294.5 722.53 293.03C725.13 292.62 727.87 293.38 730.47 292.97C741.18 291.29 752.52 292 763.5 292C781.64 292 799.45 291.67 816.5 298C822.54 294.98 827.88 290.87 834.69 289.19C855.52 284.05 883.82 286.18 897.53 304.97C898.86 306.8 900.42 307.94 901.5 310C906.14 305.36 911.11 301.56 916.66 298.16C923.01 294.26 932.34 292.16 939.53 291.03C941.81 290.68 944.21 291.21 946.5 291C947.54 290.91 948.71 290.25 949.66 290.22C950.91 290.17 952.2 290.88 953.5 291C956.12 291.24 958.87 290.62 961.47 291.03C973.81 292.96 984.81 298.3 994.5 306C995.45 306.75 996.65 307.14 997.47 308.03C1000.89 311.75 1003.48 316.07 1006.16 320.34C1007.46 322.43 1008.91 324.33 1009.81 326.69C1021.21 356.58 1006.44 392.28 999.19 421.69C997.66 427.89 996.11 434.07 994.81 440.31C994.29 442.82 992.8 445.2 992.19 447.69C991.17 451.82 990.29 455.84 988 459.5C997.07 473.96 995.89 499.92 986.84 514.34C985.56 516.39 983.94 518.09 982.53 520.03C980.38 522.98 978.01 526.25 974.97 528.47C971.65 530.89 967.85 533.96 964 535.5C960.62 536.86 957.3 537.85 954 539.5C958.47 551.53 960.92 571.8 953.84 583.34C952.51 585.52 950.83 588.76 948.97 590.47C947.16 592.14 944.19 593.12 943.19 595.69C939.75 604.48 942.61 608.83 943.97 617.53C945.18 625.24 941.72 639.34 937.47 645.97C925.12 665.23 906.68 669.65 885.47 672.97C881.9 673.53 878.1 672.47 874.53 673.03C867.96 674.06 862.04 674.06 855.47 673.03C851.9 672.47 848.1 673.53 844.53 672.97C843.44 672.8 842.56 672.21 841.47 672.03C829.11 670.01 814.15 668.25 804.5 659C797.68 665.54 787.51 668.08 778.69 670.19C774 671.31 769.23 672.22 764.47 672.97C761.22 673.48 757.78 672.52 754.53 673.03C747.09 674.2 739.91 674.2 732.47 673.03C729.22 672.52 725.78 673.48 722.53 672.97C719.18 672.44 715.81 671.58 712.47 671.03C702 669.32 689.56 666.73 681.5 659C667.47 673.03 650.22 673 631.5 673C618.17 673 604.83 673 591.5 673C579.67 673 561.62 671.75 552.5 663C538.18 670.16 527.49 671.71 511.69 667.81C506.85 666.62 502.25 661.79 498.47 661.03C491.93 659.72 481.92 660.99 475.47 661.97C472.25 662.46 468.05 661 464.5 661C459.85 661 454.89 661.63 450.5 660C448.73 661.77 447 664.02 444.97 665.47C431.47 675.11 411.25 673 395.5 673C389.83 673 384.17 673 378.5 673C356.93 673 328.01 675.7 314.47 655.03C312.58 652.15 310.16 648.69 309.19 645.31C306.95 637.55 305.75 627.7 307.03 619.53C307.57 616.1 309.64 612.22 308.81 608.69C308.07 605.53 304.8 603.91 303.16 601.34C298.94 594.76 298 587.09 298 579.5C298 574.68 298.47 570.2 300.19 565.69C300.87 563.89 302.37 562.18 302.81 560.31C303.87 555.89 302.33 551.01 303.03 546.53C303.6 542.88 305.98 539.57 305.5 536C301.7 534.19 294.48 533.64 289.69 531.81C278.58 527.58 268.56 520.6 261.53 510.97C254.27 501.02 250.88 488.28 249.03 476.47C247.99 469.83 249 462.23 249 455.5C249 431.17 249 406.83 249 382.5C249 358.91 248.54 335.96 264 316.5C287.07 287.46 324.19 290 357.5 290C376.08 290 400.38 287.89 416.5 298C421.75 292.75 429.32 290.48 436.31 288.81C438.37 288.32 440.43 287.36 442.53 287.03C445.7 286.54 449.3 287 452.5 287C465.63 287 479.54 288.45 489.5 298ZM488.5 309.04C484.79 305.98 481.38 302.67 477.03 300.49C458.49 291.17 432.31 294.26 417.5 308.85C412.22 306.47 407.67 302.99 401.89 301.55C385.41 297.42 365.47 299.25 348.5 299.23C319.07 299.17 284.23 298.53 267.26 327.75C258.15 343.45 257.73 360.85 257.64 378.5C257.56 393.83 257.61 409.17 257.62 424.5C257.65 449.27 253.77 482.18 267.59 503.89C275.95 517.01 290.72 524.01 305.53 526.84C310.64 527.82 320.21 527.09 323.99 529.5C316.31 535.77 311.99 543.52 311.38 553.55C311.2 556.46 312.34 559.63 311.92 562.45C311.55 564.91 309.1 567.27 308.29 569.72C306.24 575.97 306.13 583.19 307.94 589.5C308.97 593.11 310.66 596.51 313.22 599.27C314.1 600.22 315.64 601.06 316.28 602.18C317.33 604.01 318.29 608.61 318.55 610.82C318.88 613.69 316.18 619.11 315.83 622.5C314.52 635.09 317.66 648.49 328.06 656.46C342.11 667.24 373.22 664.58 390.5 664.55C409.33 664.51 434.36 667.9 446.5 650.2C449.53 650.57 452.46 651.51 455.5 651.92C468.99 653.73 488.07 653.44 501.5 651.34C516.05 663.61 538.36 664.81 552.5 650.94C557.37 654.27 561.02 658.43 566.8 660.63C575.31 663.86 584.53 664.01 593.5 664.3C606.83 664.72 620.17 664.65 633.5 664.3C652.75 663.8 669.28 663.57 680.5 645.64C683.96 648.6 686.8 652.23 690.81 654.66C708.31 665.23 734.68 665.57 754.5 664.35C772.94 663.22 790.93 660.23 804.5 646.76C810.66 651.98 816.19 656.85 824.07 659.46C831.6 661.95 839.6 663.35 847.5 663.88C879.14 666.02 933.15 666.11 934.7 622.5C934.95 615.37 932.78 609.18 930.78 602.5C932.06 600.24 933.22 597.95 933.98 595.46C934.58 593.51 934.5 590.76 935.61 589.06C936.41 587.84 938.56 587.1 939.72 586.21C942 584.47 943.84 582.22 945.26 579.73C951.35 569.01 951.42 552.45 944.42 542.11C941.88 538.36 938.32 536.33 934.99 533.5C938.25 531.71 942.47 532.21 946.22 531.58C951.96 530.63 957.29 528.67 962.37 525.86C986.55 512.49 990.55 482.36 978.01 459.5C982.83 448.61 985.19 439.13 988.33 427.71C991.9 414.8 995.43 401.87 998.44 388.81C1002.3 372.07 1007.39 354.96 1003.73 337.67C996.06 301.35 948.95 290.72 919.66 307.16C913.49 310.62 908.03 315.78 904.14 321.67C902.44 324.24 901.48 327.26 899.5 329.59C896.78 318.98 891.93 310.13 882.83 303.63C864.44 290.49 834.18 293.22 818.5 309.22C811.37 306.98 805.05 303.35 797.45 302.23C782.1 299.97 765.97 301.04 750.5 301.09C728.62 301.17 709.96 301.74 691.5 314.7C687.91 310.15 684.7 305.95 679.8 302.67C662.55 291.1 636.13 293.57 620.5 306.59C614.68 304.45 609.58 301.41 603.31 300.36C594.8 298.92 586.09 299.23 577.5 299.2C566.17 299.17 554.83 299.19 543.5 299.21C529 299.24 512.3 297.37 498.58 303.09C494.92 304.61 491.8 306.91 488.5 309.04ZM642 322.7C643.5 322.47 645 322.23 646.5 322C647.5 322 648.5 322 649.5 322C649.6 321.55 649.7 321.11 649.8 320.66C654.19 319.91 657.81 321.06 657.5 325.97C653.17 329.72 647.49 327.28 642.3 332.8C637.72 337.68 640.41 343.82 635.5 346.6C626.75 343.14 633.68 325.25 642 322.7ZM858.03 325.5C854.92 330.52 847.93 327.98 843.45 331.92C838.35 336.4 840.62 343.75 835.5 346.82C830.17 345.28 830.65 340.23 831.9 335.46C833.98 327.49 839.17 322.23 847.5 321.03C852.66 320.28 856.91 319.29 858.03 325.5ZM457.5 323.48C457.68 331.22 447.77 327.32 442.52 331.97C437.91 336.06 439.21 345.58 433.5 346.49C430.12 343.74 430.52 340.6 431.19 336.5C432.72 327.11 439.11 321.75 448.5 321.09C452.39 320.82 454.78 320.49 457.5 323.48ZM546 324.05C551.23 324.19 554.84 322.97 554.54 329.5C550.93 332.46 546.44 331.53 542 331.81C541.83 331.54 541.67 331.27 541.5 331C539.83 331 538.17 331 536.5 331C536.33 331.3 536.17 331.61 536 331.91C528.18 331.66 515.03 330.86 508.83 336.33C505.81 339 505.98 342.89 503.5 345.64C501.84 345.26 500.18 344.88 498.52 344.5C497.22 332.26 506 326.25 517 324.7C523.38 325.46 530.05 325 536.5 325C539.67 325 543.42 325.59 546 324.05ZM566.16 325.5C567.18 328.51 567.3 329.75 564.6 331.5C563.81 330.1 563 330.42 561.51 330.56C561.51 328.87 561.51 327.19 561.51 325.5C563.06 325.5 564.61 325.5 566.16 325.5ZM954.51 330.5C951.21 336.12 941.22 334.07 935.62 340.14C930.69 345.47 931.86 357.01 924.5 357.68C920.59 354.9 921.36 350.78 922.08 346.5C923.77 336.41 930.25 327.51 940.68 325.33C946.21 324.17 953.84 323.53 954.51 330.5ZM343.5 333.5C339.61 336.69 334.29 335.62 329.5 336.08C321.57 336.85 313.4 338.35 306.95 343.43C301.95 347.36 298.71 352.45 297.07 358.57C296.36 361.23 296.5 365.05 294.68 367.22C293.08 369.11 291.11 368.79 288.95 368.5C284.74 364.59 286.73 357.57 288.01 352.49C292.75 333.67 307.72 327.95 325.53 326.39C332.33 325.79 345.81 323 343.5 333.5ZM362.5 333.14C359.43 335.53 356.07 335.04 352.71 333.5C352.71 332.14 352.71 330.77 352.71 329.41C356.59 323.69 363.92 325.53 362.5 333.14ZM753.5 329.81C753.99 332.62 754.28 335.28 751.04 336.46C748.7 337.31 745.95 336.93 743.5 337.16C735.7 337.89 727.42 338.89 720.53 342.97C715.72 345.81 712.01 350.39 710.11 355.64C707.98 361.53 709.67 370 700.92 368.5C696.02 363.26 699.56 353.34 701.88 347.38C707.67 332.54 724.31 328.72 738.5 328.04C743.64 327.8 749.19 326.42 753.5 329.81ZM504.5 348.58C504.68 351.63 504.34 352.36 501.5 353.64C499.2 352.09 498.21 351.28 498.78 348.5C501.19 347.73 502.07 347.61 504.5 348.58ZM534.72 385.5C533.9 392.49 524.6 398.96 518.73 402.2C516.34 403.52 513.7 404.24 511.46 405.89C507.61 408.74 506.41 413.59 504.58 415.09C502.7 416.64 500.21 415.75 498.49 414.5C498.45 400.98 514.13 398.17 522.76 391.33C526.83 388.11 529.28 380.96 534.72 385.5ZM503.5 420.07C503.61 422.43 503.34 422.99 501.5 424.51C499.17 423.37 498.49 422.79 498.5 420.19C500.61 419.19 501.27 419.2 503.5 420.07ZM535.5 451.73C535.97 458.87 526.27 456.63 521.15 459.59C518.45 461.14 516.13 463.69 515.11 466.65C514.69 467.85 514.69 470.26 513.72 471.19C512.29 472.55 510.2 471.79 508.5 471.56C506.31 460.64 514.35 452.64 524.36 450.77C527.94 450.1 532.66 449.11 535.5 451.73ZM934.7 467.5C931.11 470.51 925.72 469.32 921.83 472.34C919.55 474.12 915.86 481.49 915.21 481.8C914.11 482.3 913.6 481.82 912.5 481.83C906.43 474.46 918.83 464.47 925.56 463.31C930.51 462.46 934.58 461.46 934.7 467.5ZM512.5 480.53C509.23 480.49 508.52 480.06 508.5 476.72C511.91 475.78 514.82 476.84 512.5 480.53ZM379.84 527.5C376.28 530.76 374.49 530.53 371.5 535.33C368.27 530.82 375.11 525.02 379.84 527.5ZM718.38 531.5C713.82 534.59 706.91 532.09 702.44 535.93C699.45 538.49 700.32 542.16 698.5 544.99C694.52 542.39 697.48 544.27 697.47 541.46C697.46 539.44 694.59 537.98 697.39 533.86C700.27 529.63 713.13 527 717.12 529.5C718.02 530.06 717.87 530.69 718.38 531.5ZM726.11 529.65C724.42 533.06 724.99 532.69 720.87 532.5C721.03 531.55 721.18 530.6 721.34 529.65C722.93 529.65 724.52 529.65 726.11 529.65ZM650.21 533.5C647.91 534.43 644.97 534.83 643.2 536.71C640.67 539.42 641.45 543.07 638.5 545.16C634.24 538.87 645.59 527.39 650.21 533.5ZM822.5 533.22C820.76 535.23 817.61 535.05 815.6 537.09C812.9 539.81 813.79 544.17 810.5 545.68C804.96 538.62 817.19 525.69 822.5 533.22ZM858.01 530.99C859.87 531.16 861.73 531.33 863.59 531.5C861.23 533.96 858.86 536.41 856.5 538.87C855.95 537.52 855.4 536.18 854.85 534.84C855.9 533.55 856.95 532.27 858.01 530.99ZM889.97 535.86C890.27 535.23 890.57 534.6 890.86 533.97C894.98 532.48 898.56 529.11 902.8 532.5C900.88 534.29 897.46 534.59 895.51 537.03C893.45 539.61 894.01 542.8 891.5 544.71C889.49 542.37 890.3 538.92 889.97 535.86ZM526.63 533.5C524.93 534.81 522.64 534.98 520.95 536.4C518.23 538.68 517.74 542.77 516.5 545.87C511.18 540.5 519.86 528.21 526.63 533.5ZM585.76 533.5C582.19 537.09 574.96 536.5 569.22 541.71C566.77 543.94 565.09 546.42 563.87 549.48C563.35 550.78 563.13 553.6 562.01 554.44C560.71 555.43 562.06 554.12 560.5 554.91C558.03 551.91 559.54 547.38 561.66 544.13C562.81 542.37 563.94 540.45 565.5 539.01C569.67 535.18 580.85 529.42 585.76 533.5ZM589.02 533.5C589.39 533.09 590.56 530.4 591.47 532.55C592.02 533.83 589.39 533.48 589.02 533.5ZM473.55 534.5C473.4 537.94 472.49 538.55 469.33 536.5C470.48 534.47 471.07 534.38 473.55 534.5ZM465.87 536.5C462.99 539.25 458.62 537.88 454.87 539.35C451.42 540.71 451.41 544.4 448.5 545.68C446.09 542.96 448.34 538.74 451.25 536.81C455.02 534.32 462.72 533.83 465.87 536.5ZM371.04 536.5C369.86 537.58 368.68 538.66 367.5 539.73C367.5 538.69 367.5 537.64 367.5 536.59C368.68 536.56 369.86 536.53 371.04 536.5ZM363.06 541.5C357.71 547.6 348.52 546.13 341.57 549.03C338.69 550.23 337.63 552.97 335.22 554.5C332.21 551.93 334.07 547.72 337.81 546.45C341.51 545.19 345.71 545.08 349.52 544.23C353.98 543.24 358.61 541.8 363.06 541.5ZM892.5 546.99C892.82 549.14 892.98 549.84 891.5 551.53C891.11 551.19 890.72 550.84 890.32 550.5C890.44 547.83 890.17 547.92 892.5 546.99ZM639.5 548.1C639.86 550.32 639.97 551.01 638.5 552.69C636.75 550.37 636.91 549.05 639.5 548.1ZM811.5 548.61C811.83 551.14 811.86 551.47 810.5 553.45C809.33 551.52 808.39 548.96 811.5 548.61ZM561.5 558.8C561.5 559.79 561.5 560.77 561.5 561.76C560.82 561.01 560.15 560.25 559.47 559.5C560.4 558.46 559.8 558.52 561.5 558.8ZM729.04 559C731.49 559.09 733.62 558.65 735.5 560.51C728.95 564.29 730.88 562.65 726.5 568.67C725.65 567.98 724.81 567.3 723.96 566.62C724.43 562.89 725.68 560.72 729.04 559ZM350.02 573.5C345.35 576.07 339.33 573.62 334.42 575.75C331.64 576.96 331.64 579.95 328.9 580.5C326.02 571.04 337.43 572.43 343.08 572.48C345.97 572.5 347.8 571.73 350.02 573.5ZM468.15 573.5C463.99 576.85 456.98 574.82 452.41 578.92C448.33 582.59 450.21 589.65 446.5 591.66C444.05 587.53 447.88 585.2 448.64 581.3C448.89 580.03 448.55 578.59 448.5 577.3C452.36 572.43 463.23 570.11 468.15 573.5ZM701.54 576.5C699.34 578.52 695.88 577.95 693.29 579.79C691.41 581.13 689.54 586.92 689.28 587.03C688.74 587.27 688.01 587.02 687.54 587.38C687.54 584.75 687.54 582.13 687.54 579.5C689.3 574.91 697.72 573.17 701.54 576.5ZM708.82 576.5C706.42 577.83 705.24 578.18 704.4 575.5C706.76 574.99 707.27 574.95 708.82 576.5ZM352.44 596.5C349.93 596.57 347.05 596.29 344.64 597.08C341.15 598.22 342.87 600.25 338.5 600.63C338.89 594.46 348.09 594.86 352.44 596.5ZM362.67 595.5C361.7 595.83 360.73 596.17 359.76 596.5C360.73 596.17 361.7 595.83 362.67 595.5ZM585.52 600.5C582.26 602.49 578.12 602.02 574.89 604.36C571.7 606.66 571.12 610.72 568.5 613.21C565.32 608.81 568.57 602.03 574.04 600.64C575.49 600.27 577.01 600.46 578.5 600.25C581.19 599.85 583.37 598.61 585.52 600.5ZM592.62 599.5C591.16 600.86 590.45 600.75 588.34 600.5C589.75 599.01 590.31 599.1 592.62 599.5ZM724.88 603.2C723.44 603.2 722 603.2 720.56 603.2C720.54 602.47 720.52 601.75 720.5 601.02C724.33 599.4 724.06 599.75 724.88 603.2ZM822.96 604.85C825.03 603.59 827.09 602.33 829.16 601.07C833.22 601.26 836.78 598.87 840.5 601.23C839.74 604.85 832.1 604.43 828.95 606.39C826.67 607.81 824.95 609.9 823.68 612.23C823.08 613.33 822.49 616.08 821.18 616.55C820.23 616.9 820.56 616.36 819.5 616.53C816.41 611.62 821.45 608.8 822.96 604.85ZM845.77 600.5C845.01 600.98 844.26 601.47 843.5 601.95C843.88 600.14 843.77 600.4 845.77 600.5ZM708.86 600.95C712.57 601.06 715.4 600.04 718.5 602.33C717.73 605.22 709.98 605.66 706.86 607.33C702.54 609.64 701.27 614.88 697.5 616.81C692.81 611.52 701.03 608.41 702.11 603.95C704.36 602.95 706.61 601.95 708.86 600.95ZM354.58 614.5C352.26 617.56 347.47 616.14 344.15 618.58C340.88 620.99 342.53 623.76 338.5 624.64C336.18 615.71 347.87 612.93 354.58 614.5ZM569.44 616.5C568.8 617.29 568.15 618.07 567.5 618.86C567.48 616.54 567.34 616.87 569.44 616.5ZM698.5 619.45C698.48 621.7 698.33 621.77 696.5 622.73C694.9 619.97 695.69 619.6 698.5 619.45ZM820.5 619.04C820.76 621.07 820.96 621.21 819.5 622.65C818.64 620.18 818.78 620.53 820.5 619.04ZM340.57 627.5C340.21 628.18 339.86 628.86 339.5 629.55C337.99 628.34 338.4 628.44 338.12 626.5C338.94 626.83 339.75 627.17 340.57 627.5Z" fill="#ffffff" fill-rule="evenodd" stroke="#ffffff" stroke-width="0.25" stroke-linejoin="round"/>
<path d="M517 318.21C522.33 318.13 527.67 318.05 533 317.96C532.83 318.35 532.67 318.73 532.5 319.11C527.5 319.44 522.5 319.77 517.5 320.11C517.33 319.47 517.17 318.84 517 318.21ZM587 317.94C590.44 318.04 593.88 318.13 597.32 318.23C596.88 318.65 596.44 319.08 596 319.5C597.35 319.29 598.7 319.08 600.04 318.87C600.2 319.77 600.35 320.67 600.5 321.56C595.93 320.61 589.7 319.24 585.5 320.53C586 319.67 586.5 318.8 587 317.94ZM504 321.3C504.43 321.7 504.87 322.1 505.3 322.5C505.03 322.9 504.77 323.31 504.5 323.71C503.5 324.67 502.5 325.63 501.5 326.58C499.39 326.54 498.82 326.84 496.93 327.8C498.43 324.74 500.98 322.84 504 321.3ZM649.8 320.66C649.7 321.11 649.6 321.55 649.5 322C648.5 322 647.5 322 646.5 322C645 322.23 643.5 322.47 642 322.7C642.5 322.22 643 321.74 643.5 321.26C645.6 321.06 647.7 320.86 649.8 320.66ZM546 324.05C543.42 325.59 539.67 325 536.5 325C530.05 325 523.38 325.46 517 324.7C519.76 323.28 523.33 323.75 526.5 323.75C532.83 323.74 539.86 322.88 546 324.05ZM542 331.81C540 331.84 538 331.88 536 331.91C536.17 331.61 536.33 331.3 536.5 331C538.17 331 539.83 331 541.5 331C541.67 331.27 541.83 331.54 542 331.81Z" fill="#eadb95" fill-rule="evenodd" stroke="#eadb95" stroke-width="0.25" stroke-linejoin="round"/>
</svg>
